<svg width="750" height="500" viewBox="0 0 750 500" fill="none" xmlns="http://www.w3.org/2000/svg">
<path d="M127.55 161.76C127.55 162.99 126.55 163.99 125.32 163.99C124.09 163.99 123.09 162.99 123.09 161.76C123.09 160.53 124.09 159.53 125.32 159.53C126.55 159.53 127.55 160.53 127.55 161.76Z" stroke="#CDDBFC" stroke-miterlimit="10"/>
<path d="M567.4 195.33C567.4 196.56 566.4 197.56 565.17 197.56C563.94 197.56 562.94 196.56 562.94 195.33C562.94 194.1 563.94 193.1 565.17 193.1C566.41 193.1 567.4 194.1 567.4 195.33Z" stroke="#CDDBFC" stroke-miterlimit="10"/>
<path d="M634.68 223.77C634.68 225 633.68 226 632.45 226C631.22 226 630.22 225 630.22 223.77C630.22 222.54 631.22 221.54 632.45 221.54C633.68 221.54 634.68 222.54 634.68 223.77Z" stroke="#CDDBFC" stroke-miterlimit="10"/>
<path d="M364.04 101.7C364.04 102.93 363.04 103.93 361.81 103.93C360.58 103.93 359.58 102.93 359.58 101.7C359.58 100.47 360.58 99.47 361.81 99.47C363.05 99.48 364.04 100.47 364.04 101.7Z" stroke="#CDDBFC" stroke-miterlimit="10"/>
<path d="M416.89 194.67V201.57" stroke="#CDDBFC" stroke-miterlimit="10"/>
<path d="M420.34 198.12H413.44" stroke="#CDDBFC" stroke-miterlimit="10"/>
<path d="M671.93 250.71V257.62" stroke="#CDDBFC" stroke-miterlimit="10"/>
<path d="M675.38 254.17H668.48" stroke="#CDDBFC" stroke-miterlimit="10"/>
<path d="M615.12 119.39V126.29" stroke="#CDDBFC" stroke-miterlimit="10"/>
<path d="M618.57 122.84H611.67" stroke="#CDDBFC" stroke-miterlimit="10"/>
<path d="M149.95 109.29V116.19" stroke="#CDDBFC" stroke-miterlimit="10"/>
<path d="M153.4 112.74H146.5" stroke="#CDDBFC" stroke-miterlimit="10"/>
<path d="M125.32 256.16V263.06" stroke="#CDDBFC" stroke-miterlimit="10"/>
<path d="M128.77 259.61H121.87" stroke="#CDDBFC" stroke-miterlimit="10"/>
<path d="M325.76 71.09V77.99" stroke="#CDDBFC" stroke-miterlimit="10"/>
<path d="M329.21 74.54H322.31" stroke="#CDDBFC" stroke-miterlimit="10"/>
<path d="M131.82 220.44H62.77C61.56 220.44 60.59 219.46 60.59 218.26C60.59 217.05 61.57 216.08 62.77 216.08H131.82C133.03 216.08 134 217.06 134 218.26C134.01 219.46 133.03 220.44 131.82 220.44Z" stroke="#CDDBFC" stroke-miterlimit="10"/>
<path d="M662.72 156.37H593.67C592.46 156.37 591.49 155.39 591.49 154.19C591.49 152.98 592.47 152.01 593.67 152.01H662.72C663.93 152.01 664.9 152.99 664.9 154.19C664.9 155.39 663.92 156.37 662.72 156.37Z" stroke="#CDDBFC" stroke-miterlimit="10"/>
<path d="M682.47 168.07H656.94C656.34 168.07 655.85 167.58 655.85 166.98C655.85 166.38 656.34 165.89 656.94 165.89H682.47C683.07 165.89 683.56 166.38 683.56 166.98C683.57 167.59 683.08 168.07 682.47 168.07Z" fill="#CDDBFC"/>
<path d="M275.95 160.04H250.42C249.82 160.04 249.33 159.55 249.33 158.95C249.33 158.35 249.82 157.86 250.42 157.86H275.95C276.55 157.86 277.04 158.35 277.04 158.95C277.04 159.55 276.55 160.04 275.95 160.04Z" fill="#CDDBFC"/>
<path d="M102.24 203.18H82.72C82.12 203.18 81.63 202.69 81.63 202.09C81.63 201.49 82.12 201 82.72 201H102.25C102.85 201 103.34 201.49 103.34 202.09C103.33 202.69 102.85 203.18 102.24 203.18Z" fill="#CDDBFC"/>
<path d="M334.7 163.85C334.7 155.75 341.27 149.18 349.37 149.18C357.47 149.18 364.04 155.75 364.04 163.85C364.04 167.08 363 170.07 361.23 172.49C359.14 175.65 353.69 179.21 353.69 181.34V183.78C353.69 184.27 353.3 184.66 352.81 184.66H350.45H348.28H345.92C345.43 184.66 345.04 184.27 345.04 183.78V181.34C345.04 179.21 339.6 175.64 337.5 172.49C335.74 170.07 334.7 167.08 334.7 163.85Z" fill="white" stroke="#CDDBFC" stroke-miterlimit="10"/>
<path d="M351.04 184.42C351.02 184.05 350.76 178.16 351.23 173C350.65 173.07 350.03 173.1 349.37 173.1C348.71 173.1 348.09 173.06 347.51 173C347.98 178.16 347.72 184.05 347.7 184.42L347.44 184.41C347.44 184.32 347.72 178.23 347.23 172.97C342.88 172.36 340.93 169.9 340.58 167.57C340.38 166.21 340.84 164.86 341.68 164.35C342.19 164.04 342.81 163.98 343.47 164.17C344.51 164.47 345.49 165.36 346.1 166.56C346.81 167.94 347.23 170.24 347.47 172.74C348.05 172.81 348.68 172.85 349.35 172.85C350.02 172.85 350.65 172.81 351.23 172.74C351.47 170.25 351.89 167.95 352.6 166.56C353.21 165.36 354.2 164.47 355.23 164.17C355.89 163.98 356.51 164.04 357.02 164.35C357.86 164.85 358.33 166.21 358.12 167.57C357.77 169.9 355.82 172.36 351.47 172.97C350.99 178.23 351.26 184.32 351.26 184.41L351.04 184.42ZM355.98 164.33C355.77 164.33 355.55 164.36 355.33 164.43C354.36 164.71 353.44 165.55 352.85 166.69C352.17 168.02 351.76 170.26 351.52 172.71C355.69 172.11 357.55 169.76 357.89 167.54C358.08 166.3 357.65 165.03 356.91 164.58C356.64 164.41 356.32 164.33 355.98 164.33ZM342.76 164.33C342.42 164.33 342.11 164.41 341.83 164.58C341.08 165.03 340.66 166.3 340.85 167.54C341.18 169.76 343.05 172.11 347.22 172.71C346.98 170.26 346.58 168.02 345.89 166.69C345.31 165.55 344.38 164.71 343.41 164.43C343.19 164.36 342.97 164.33 342.76 164.33Z" fill="white" stroke="#CDDBFC" stroke-miterlimit="10"/>
<path d="M354.04 182.39H344.7V186.84C344.7 187.57 344.91 188.28 345.3 188.89C346.04 190.05 347.31 190.75 348.69 190.75H350.06C351.43 190.75 352.71 190.05 353.45 188.89C353.84 188.28 354.05 187.56 354.05 186.84V182.39H354.04Z" fill="white" stroke="#CDDBFC" stroke-miterlimit="10"/>
<path d="M349.29 137.52V144.84" stroke="#CDDBFC" stroke-miterlimit="10"/>
<path d="M362.96 142.04L357.79 147.22" stroke="#CDDBFC" stroke-miterlimit="10"/>
<path d="M335.78 142.43L340.95 147.6" stroke="#CDDBFC" stroke-miterlimit="10"/>
<path d="M448.21 183.29H465.64C472.81 183.29 478.62 189.1 478.62 196.27C478.62 201.58 475.43 206.14 470.86 208.15L472.6 212.94L466.21 209.22C466.02 209.23 465.83 209.25 465.63 209.25H448.2C441.03 209.25 435.22 203.44 435.22 196.27C435.23 189.1 441.04 183.29 448.21 183.29Z" fill="white" stroke="#CDDBFC" stroke-miterlimit="10"/>
<path d="M445.52 201.81L454.32 194.45L459.07 198.55L468.03 189.65" stroke="#CDDBFC" stroke-miterlimit="10"/>
<path d="M463.56 189.65H468.03V194.12" stroke="#CDDBFC" stroke-miterlimit="10"/>
<path d="M277.71 101.7H240.67C230.74 101.7 222.68 109.75 222.68 119.69C222.68 127.05 227.1 133.36 233.43 136.15L231.02 142.79L239.87 137.64C240.14 137.65 240.4 137.68 240.67 137.68H277.71C287.64 137.68 295.7 129.63 295.7 119.69C295.69 109.76 287.64 101.7 277.71 101.7Z" fill="white" stroke="#CDDBFC" stroke-miterlimit="10"/>
<path d="M245.33 129.64C250.892 129.64 255.4 125.132 255.4 119.57C255.4 114.009 250.892 109.5 245.33 109.5C239.768 109.5 235.26 114.009 235.26 119.57C235.26 125.132 239.768 129.64 245.33 129.64Z" fill="white" stroke="#CDDBFC" stroke-miterlimit="10"/>
<path d="M245.33 126.06C248.914 126.06 251.82 123.154 251.82 119.57C251.82 115.986 248.914 113.08 245.33 113.08C241.746 113.08 238.84 115.986 238.84 119.57C238.84 123.154 241.746 126.06 245.33 126.06Z" fill="#F0F2FC"/>
<path d="M241.07 124.45C242.21 125.45 243.7 126.05 245.33 126.05C248.91 126.05 251.82 123.15 251.82 119.56C251.82 115.98 248.92 113.07 245.33 113.07V119.56L241.07 124.45Z" fill="#E1E5F9"/>
<path d="M262.56 109.75H284.07" stroke="#CDDBFC" stroke-miterlimit="10"/>
<path d="M262.56 116.29H284.07" stroke="#CDDBFC" stroke-miterlimit="10"/>
<path d="M262.56 122.84H284.07" stroke="#CDDBFC" stroke-miterlimit="10"/>
<path d="M262.56 129.39H272.17" stroke="#CDDBFC" stroke-miterlimit="10"/>
<path d="M578.2 56.32H401.72V172.97H578.2V56.32Z" fill="white" stroke="#CDDBFC" stroke-miterlimit="10"/>
<path d="M520.88 88.57C511.17 88.57 514.86 132.93 505.51 132.93C498.16 132.93 497.94 105.53 490.14 105.53C482.34 105.53 482.88 116.58 474.77 116.58C466.66 116.58 466.71 99.95 459.86 99.95C453.47 99.95 451.26 125.98 444.03 125.98C436.79 125.98 434.85 116.7 428.66 117.45C417.49 118.81 413.29 139.36 413.29 139.36H536.25V108.8C527.27 108.8 527.87 88.57 520.88 88.57Z" fill="url(#paint0_linear_0_1)"/>
<path d="M413.29 139.35C413.29 139.35 417.49 118.8 428.66 117.44C434.85 116.69 436.79 125.97 444.03 125.97C451.27 125.97 453.48 99.94 459.86 99.94C466.71 99.94 466.66 116.57 474.77 116.57C482.88 116.57 482.34 105.52 490.14 105.52C497.94 105.52 498.16 132.92 505.51 132.92C514.86 132.92 511.17 88.56 520.88 88.56C527.87 88.56 527.28 108.79 536.25 108.79" stroke="#CDDBFC" stroke-width="0.5" stroke-miterlimit="10"/>
<path d="M413.29 79.88V139.35H544.06" stroke="#CDDBFC" stroke-width="0.5" stroke-miterlimit="10"/>
<path d="M428.66 79.88V139.35" stroke="#CDDBFC" stroke-width="0.5" stroke-miterlimit="10"/>
<path d="M444.03 79.88V139.35" stroke="#CDDBFC" stroke-width="0.5" stroke-miterlimit="10"/>
<path d="M459.4 79.88V139.35" stroke="#CDDBFC" stroke-width="0.5" stroke-miterlimit="10"/>
<path d="M474.77 79.88V139.35" stroke="#CDDBFC" stroke-width="0.5" stroke-miterlimit="10"/>
<path d="M490.14 79.88V139.35" stroke="#CDDBFC" stroke-width="0.5" stroke-miterlimit="10"/>
<path d="M505.51 79.88V139.35" stroke="#CDDBFC" stroke-width="0.5" stroke-miterlimit="10"/>
<path d="M520.88 79.88V139.35" stroke="#CDDBFC" stroke-width="0.5" stroke-miterlimit="10"/>
<path d="M536.25 79.88V139.35" stroke="#CDDBFC" stroke-width="0.5" stroke-miterlimit="10"/>
<path d="M430.03 117.44C430.03 118.2 429.42 118.81 428.66 118.81C427.9 118.81 427.29 118.2 427.29 117.44C427.29 116.68 427.9 116.07 428.66 116.07C429.41 116.08 430.03 116.69 430.03 117.44Z" fill="#CDDBFC"/>
<path d="M428.66 117.44L432.26 109.15H437.75" stroke="#CDDBFC" stroke-width="0.5" stroke-miterlimit="10"/>
<path d="M440.24 102.92H432.26V103.73H440.24V102.92Z" fill="#EEEDF2"/>
<path d="M440.24 104.67H432.26V105.48H440.24V104.67Z" fill="#EEEDF2"/>
<path d="M438.66 106.41H432.26V107.22H438.66V106.41Z" fill="#EEEDF2"/>
<path d="M491.5 106C491.5 106.76 490.89 107.37 490.13 107.37C489.37 107.37 488.76 106.76 488.76 106C488.76 105.24 489.37 104.63 490.13 104.63C490.89 104.63 491.5 105.24 491.5 106Z" fill="#CDDBFC"/>
<path d="M490.14 106L493.74 97.7H499.23" stroke="#CDDBFC" stroke-width="0.5" stroke-miterlimit="10"/>
<path d="M501.72 91.48H493.74V92.29H501.72V91.48Z" fill="#EEEDF2"/>
<path d="M501.72 93.22H493.74V94.03H501.72V93.22Z" fill="#EEEDF2"/>
<path d="M500.14 94.97H493.74V95.78H500.14V94.97Z" fill="#EEEDF2"/>
<path d="M522.24 88.57C522.24 89.33 521.63 89.94 520.87 89.94C520.11 89.94 519.5 89.33 519.5 88.57C519.5 87.81 520.11 87.2 520.87 87.2C521.63 87.2 522.24 87.81 522.24 88.57Z" fill="#CDDBFC"/>
<path d="M520.88 88.57L524.48 80.27H529.97" stroke="#CDDBFC" stroke-width="0.5" stroke-miterlimit="10"/>
<path d="M532.46 74.05H524.48V74.86H532.46V74.05Z" fill="#EEEDF2"/>
<path d="M532.46 75.79H524.48V76.6H532.46V75.79Z" fill="#EEEDF2"/>
<path d="M530.88 77.54H524.48V78.35H530.88V77.54Z" fill="#EEEDF2"/>
<path d="M413.289 164.762H474.339V147.262H413.289V164.762Z" fill="#E8EBF9"/>
<path d="M453.18 159.92H416.89" stroke="url(#paint1_linear_0_1)" stroke-miterlimit="10"/>
<path d="M470.74 156.02H416.89" stroke="url(#paint2_linear_0_1)" stroke-miterlimit="10"/>
<path d="M470.74 152.11H416.89" stroke="url(#paint3_linear_0_1)" stroke-miterlimit="10"/>
<path d="M449.01 64.07H530.92C531.85 64.07 532.6 64.82 532.6 65.75C532.6 66.68 531.85 67.43 530.92 67.43H449.01C448.08 67.43 447.33 66.68 447.33 65.75C447.33 64.82 448.08 64.07 449.01 64.07Z" fill="#E1E5F9"/>
<path d="M549.23 79.31H557.29V83.58H549.23V79.31Z" fill="url(#paint4_linear_0_1)"/>
<path d="M568.11 79.22H560.02V80.04H568.11V79.22Z" fill="#EEEDF2"/>
<path d="M568.11 80.99H560.02V81.81H568.11V80.99Z" fill="#EEEDF2"/>
<path d="M566.51 82.76H560.02V83.58H566.51V82.76Z" fill="#EEEDF2"/>
<path d="M549.23 88.79H557.29V93.06H549.23V88.79Z" fill="url(#paint5_linear_0_1)"/>
<path d="M568.11 88.7H560.02V89.52H568.11V88.7Z" fill="#EEEDF2"/>
<path d="M568.11 90.47H560.02V91.29H568.11V90.47Z" fill="#EEEDF2"/>
<path d="M566.51 92.24H560.02V93.06H566.51V92.24Z" fill="#EEEDF2"/>
<path d="M549.23 110.24H573.06M549.23 113.14H573.06M560.02 116.05H549.24M573.06 116.05H562.28M573.06 118.96H549.23M549.23 121.87H573.06M566.5 124.78H549.23M567.67 124.78H573.06M549.23 127.69H573.06M573.06 130.6H549.23M555.19 133.51H549.23M557.29 133.51H573.06M549.23 136.41H573.06M562.68 139.35H549.23M563.84 139.35H573.06" stroke="url(#paint6_linear_0_1)" stroke-miterlimit="10"/>
<path d="M549.23 98.27H557.29V102.55H549.23V98.27Z" fill="url(#paint7_linear_0_1)"/>
<path d="M568.11 98.19H560.02V99.01H568.11V98.19Z" fill="#EEEDF2"/>
<path d="M568.11 99.95H560.02V100.77H568.11V99.95Z" fill="#EEEDF2"/>
<path d="M566.51 101.72H560.02V102.54H566.51V101.72Z" fill="#EEEDF2"/>
<path d="M497.456 164.238C501.955 162.386 504.101 157.238 502.249 152.739C500.397 148.239 495.249 146.093 490.75 147.945C486.25 149.797 484.104 154.946 485.956 159.445C487.808 163.944 492.956 166.09 497.456 164.238Z" fill="white" stroke="#CDDBFC" stroke-miterlimit="10"/>
<path d="M499.8 156.08C499.8 159.22 497.26 161.76 494.12 161.76C490.98 161.76 488.44 159.22 488.44 156.08C488.44 152.94 490.98 150.4 494.12 150.4C497.26 150.4 499.8 152.94 499.8 156.08Z" fill="#F0F2FC"/>
<path d="M499.04 158.91C499.52 158.08 499.79 157.11 499.79 156.08C499.79 152.94 497.25 150.4 494.11 150.4V156.08L499.04 158.91Z" fill="#E1E5F9"/>
<path d="M527.642 158.124C528.764 153.39 525.836 148.642 521.102 147.52C516.367 146.398 511.62 149.326 510.498 154.061C509.376 158.795 512.304 163.542 517.038 164.664C521.773 165.786 526.52 162.858 527.642 158.124Z" fill="white" stroke="#CDDBFC" stroke-miterlimit="10"/>
<path d="M524.77 156.08C524.77 159.22 522.23 161.76 519.09 161.76C515.95 161.76 513.41 159.22 513.41 156.08C513.41 152.94 515.95 150.4 519.09 150.4C522.22 150.4 524.77 152.94 524.77 156.08Z" fill="#F0F2FC"/>
<path d="M515.36 160.36C516.36 161.23 517.66 161.76 519.09 161.76C522.23 161.76 524.77 159.22 524.77 156.08C524.77 152.94 522.23 150.4 519.09 150.4V156.08L515.36 160.36Z" fill="#E1E5F9"/>
<path d="M547.395 164.24C551.894 162.388 554.04 157.24 552.188 152.741C550.336 148.241 545.188 146.095 540.688 147.947C536.189 149.799 534.043 154.947 535.895 159.447C537.747 163.946 542.895 166.092 547.395 164.24Z" fill="white" stroke="#CDDBFC" stroke-miterlimit="10"/>
<path d="M549.74 156.08C549.74 159.22 547.2 161.76 544.06 161.76C540.92 161.76 538.38 159.22 538.38 156.08C538.38 152.94 540.92 150.4 544.06 150.4C547.19 150.4 549.74 152.94 549.74 156.08Z" fill="#F0F2FC"/>
<path d="M548.22 152.21C547.18 151.09 545.7 150.39 544.06 150.39V156.07L548.22 152.21Z" fill="#E1E5F9"/>
<path d="M74.94 445.5H675.06" stroke="#93A5F9" stroke-miterlimit="10"/>
<path d="M197.38 397.24L197.96 430.37L197.67 441.24L240.28 441.02C241.32 441.01 242.16 440.17 242.15 439.13C242.15 438.35 241.66 437.65 240.93 437.38L222.55 428.93L223.65 394.4" fill="#FFDAC5"/>
<path d="M244.01 440.56C243.57 439.2 242.77 437.66 241.97 437.32L222.49 428.93C211.75 433.28 197.85 429.96 197.85 429.96L195.37 444.63C195.37 445.12 195.77 445.51 196.25 445.5H243.69C244.64 445.49 244.03 440.61 244.01 440.56Z" fill="#E2405B"/>
<path d="M226.7 429.77C225.61 431.19 224.68 432.74 223.95 434.38" stroke="#AA3047" stroke-width="0.75" stroke-miterlimit="10"/>
<path d="M229.16 431.24C228.03 432.81 227.58 433.71 226.9 435.16" stroke="#AA3047" stroke-width="0.75" stroke-miterlimit="10"/>
<path d="M231.23 432.31C230.46 433.34 229.71 434.77 229.11 435.91" stroke="#AA3047" stroke-width="0.75" stroke-miterlimit="10"/>
<path d="M195.62 442.33L244.21 442.08" stroke="#AA3047" stroke-width="0.75" stroke-miterlimit="10"/>
<path d="M196.97 435.16C196.97 435.16 208.39 435.39 209.37 442.27" stroke="#AA3047" stroke-width="0.75" stroke-miterlimit="10"/>
<path d="M237.98 435.6C237.98 435.6 234.83 440.07 234.21 442.14" stroke="#AA3047" stroke-width="0.75" stroke-miterlimit="10"/>
<path d="M188.33 259.48C188.33 259.48 184.23 273.55 187.7 297.96C189.45 313.25 193.7 423.9 193.7 423.9H227.62C227.62 423.9 224.33 306.57 218.76 254.17" fill="#423EAC"/>
<path d="M193.58 415.87H227.38" stroke="#6E75F4" stroke-width="0.75" stroke-miterlimit="10"/>
<path d="M198.09 423.45C198.09 423.45 195.97 372.96 193.78 345.61" stroke="#6E75F4" stroke-width="0.75" stroke-miterlimit="10"/>
<path d="M160.38 397.24L160.96 430.37L160.67 441.24L203.28 441.02C204.32 441.01 205.16 440.17 205.15 439.13C205.15 438.35 204.66 437.65 203.93 437.38L185.55 428.93L186.65 394.4" fill="#FFDAC5"/>
<path d="M207.01 440.56C206.57 439.2 205.77 437.66 204.97 437.32L185.49 428.93C174.75 433.28 160.85 429.96 160.85 429.96L158.37 444.63C158.37 445.12 158.77 445.51 159.25 445.5H206.69C207.64 445.49 207.03 440.61 207.01 440.56Z" fill="#FF6675"/>
<path d="M189.71 429.77C188.62 431.19 187.69 432.74 186.96 434.38" stroke="#C93F53" stroke-width="0.75" stroke-miterlimit="10"/>
<path d="M192.16 431.24C191.03 432.81 190.58 433.71 189.9 435.16" stroke="#C93F53" stroke-width="0.75" stroke-miterlimit="10"/>
<path d="M194.23 432.31C193.46 433.34 192.71 434.77 192.11 435.91" stroke="#C93F53" stroke-width="0.75" stroke-miterlimit="10"/>
<path d="M158.62 442.33L207.21 442.08" stroke="#C93F53" stroke-width="0.75" stroke-miterlimit="10"/>
<path d="M159.97 435.16C159.97 435.16 171.39 435.39 172.37 442.27" stroke="#C93F53" stroke-width="0.75" stroke-miterlimit="10"/>
<path d="M200.98 435.6C200.98 435.6 197.83 440.07 197.21 442.14" stroke="#C93F53" stroke-width="0.75" stroke-miterlimit="10"/>
<path d="M154.34 259.48C154.34 259.48 150.24 273.55 153.71 297.96C155.46 313.25 153.71 423.9 153.71 423.9H191.63C191.63 423.9 195.82 298.31 194.46 254.17" fill="#423EAC"/>
<path d="M160.34 259.48C160.34 259.48 156.24 273.55 159.71 297.96C161.46 313.25 159.71 423.9 159.71 423.9" stroke="#6E75F4" stroke-width="0.75" stroke-miterlimit="10"/>
<path d="M192.44 397.6C193.58 358.32 195.43 285.6 194.46 254.17" stroke="#6E75F4" stroke-width="0.75" stroke-miterlimit="10"/>
<path d="M158.84 268.29C158.84 268.29 169.86 266.71 173.52 257.24" stroke="#6E75F4" stroke-width="0.75" stroke-miterlimit="10"/>
<path d="M194.73 273.94C194.73 273.94 197.45 273.74 197.9 272.9C198.35 272.05 197.9 256 197.9 256" stroke="#6E75F4" stroke-width="0.75" stroke-miterlimit="10"/>
<path d="M209.53 257.24C209.53 257.24 211.18 268.29 220.09 268.29" stroke="#6E75F4" stroke-width="0.75" stroke-miterlimit="10"/>
<path d="M153.82 415.87H191.88" stroke="#6E75F4" stroke-width="0.75" stroke-miterlimit="10"/>
<path d="M212.03 185.94C217.24 201.03 220.44 242.86 220.77 259.48H153.74C153.74 259.48 150.7 212.12 157.82 186.87L177.61 169.31L193.95 170.1L212.03 185.94Z" fill="#93A5F9"/>
<path d="M145.87 203.17C145.87 203.17 146.36 239.09 157.82 239.09C170.9 239.09 202.14 218.08 202.14 218.08L205.59 218.2L205.15 208.89C205.15 208.89 202.71 207.99 197.75 208.34C192.79 208.69 170.91 214.52 170.91 214.52L170.08 198.47" fill="#FFDAC5"/>
<path d="M224.29 196.85C224.29 196.85 231.13 236.25 218.67 237.16C198.43 238.65 169.55 224.45 169.55 224.45L174.57 217.14L205.6 218.2L204.51 195.33" fill="#FFDAC5"/>
<path d="M182.7 229.59L202.15 218.09L205.6 218.2L204.99 205.49" stroke="#F2A486" stroke-width="0.75" stroke-miterlimit="10" stroke-linejoin="round"/>
<path d="M177.62 169.31C177.62 169.31 155.58 167.91 148.06 181.65C141.79 193.11 146 212.74 146 212.74L171.71 209.11L171.64 188.91" fill="#93A5F9"/>
<path d="M193.95 170.1C193.95 170.1 208.97 169.21 217.01 177.5C225.05 185.79 225.81 205.49 225.81 205.49H202.15L200.84 187.78" fill="#93A5F9"/>
<path d="M171.66 205.24L145.29 208.39" stroke="#1D4893" stroke-width="0.75" stroke-miterlimit="10"/>
<path d="M203.78 201.59L225.46 201.31" stroke="#1D4893" stroke-width="0.75" stroke-miterlimit="10"/>
<path d="M171.72 209.1L171.66 192.17" stroke="#1D4893" stroke-width="0.75" stroke-miterlimit="10"/>
<path d="M202.47 191L204.26 205.49" stroke="#1D4893" stroke-width="0.75" stroke-miterlimit="10"/>
<path d="M201.89 139.98C201.89 139.98 203.56 156.69 198.46 161.92C195.81 164.64 189.22 164 186.14 161.25C183.85 159.21 180.64 147.21 182.07 145.04C187.53 136.73 201.89 139.98 201.89 139.98Z" fill="#FFDAC5"/>
<path d="M178.45 158.95L176.62 169.31C176.62 169.31 186.01 176.99 193.96 170.1L194.63 159.18L186.55 154.94L178.45 158.95Z" fill="#FFDAC5"/>
<path d="M203.64 139.76C202.71 137.59 200.88 135.97 196.61 135.54C188.26 130.14 177.99 135.03 176.52 144.42C175.84 148.76 176.24 152.8 177.59 156.73C178.05 158.07 178.45 158.94 178.45 158.94C178.45 158.94 183.16 158.77 183.58 157.82C184.49 155.8 183.74 153.5 184.14 151.37L184.26 151.17C184.4 150.77 184.6 150.38 184.89 150C185.45 149.26 186.12 148.59 186.55 147.77C186.85 147.19 187.03 146.54 187.37 145.99C187.99 144.99 189.16 144.36 190.33 144.39C191.23 144.41 192.12 144.8 193 144.61C193.82 144.44 194.46 143.82 195.23 143.5C198.46 143.7 203.81 146.94 203.81 146.94C204.94 144.87 204.56 141.93 203.64 139.76ZM201.17 139.55C201.29 139.57 201.23 139.49 201.17 139.55Z" fill="#282872"/>
<path d="M194.22 164.04C189.03 163.41 185.42 161.12 185.42 161.12" stroke="#F2A486" stroke-width="0.75" stroke-miterlimit="10" stroke-linejoin="round"/>
<path d="M196.46 150.18C196.46 150.18 198.04 154.45 197.58 155.43C197.12 156.41 194.63 155.98 194.63 155.98" stroke="#F2A486" stroke-width="0.75" stroke-miterlimit="10" stroke-linejoin="round"/>
<path d="M197.19 157.62L190.26 157.04C190.26 157.04 190.76 160.8 194.59 160.85C197.32 160.89 197.19 157.62 197.19 157.62Z" fill="white"/>
<path d="M198.77 149.76C198.75 150.07 198.75 150.38 198.77 150.69C198.79 151.2 199.58 151.2 199.56 150.69C199.54 150.35 199.51 150.01 199.45 149.67C199.38 149.27 198.8 149.39 198.77 149.76Z" fill="#00276F"/>
<path d="M198.25 147.84C198.25 147.84 199.6 146.69 200.84 148.11" stroke="#00276F" stroke-width="0.5" stroke-miterlimit="10" stroke-linecap="round" stroke-linejoin="round"/>
<path d="M191.67 149.78C191.63 150.09 191.61 150.4 191.61 150.71C191.61 151.22 192.39 151.22 192.4 150.71C192.4 150.4 192.39 150.09 192.36 149.78C192.31 149.34 191.72 149.34 191.67 149.78Z" fill="#00276F"/>
<path d="M193.33 147.23C193.33 147.23 191.81 146.3 189.67 147.85" stroke="#00276F" stroke-width="0.5" stroke-miterlimit="10" stroke-linecap="round" stroke-linejoin="round"/>
<path d="M185 152.52C183.64 149.99 182.22 150.17 181.28 151.33C180.03 152.88 181.52 156.66 182.36 157.38C184.07 158.85 185.62 158.93 186.01 157.3" fill="#FFDAC5"/>
<path d="M521.95 354.3L539.54 445.5" stroke="#3D4FB7" stroke-miterlimit="10"/>
<path d="M484.18 354.3L466.59 445.5" stroke="#3D4FB7" stroke-miterlimit="10"/>
<path d="M503.99 354.3L508.83 445.5" stroke="#3D4FB7" stroke-miterlimit="10"/>
<path d="M508.78 215.8C596.98 215.8 574.23 356.13 536.45 356.13C498.67 356.13 450.09 356.13 450.09 356.13C438.36 356.13 434.97 341.32 447.16 341.32C459.35 341.32 468.8 341.32 468.8 341.32C468.8 341.32 444.42 215.8 508.78 215.8Z" fill="#E8EEFE"/>
<path d="M527.55 344.3C489.76 344.3 441.19 344.3 441.19 344.3C440.9 344.3 440.62 344.29 440.34 344.27C441.44 342.54 443.65 341.32 447.15 341.32C459.34 341.32 468.79 341.32 468.79 341.32C468.79 341.32 447.39 231.15 497.62 217.24C498.37 217.21 499.11 217.18 499.88 217.18C588.09 217.18 565.34 344.3 527.55 344.3Z" fill="#CDDBFC"/>
<path d="M439.3 362.15L445.2 426.33L465.13 424.12L463.5 359.99" fill="#FFDAC5"/>
<path d="M444.94 423.23L428.99 439.89C428.99 439.89 466.72 432.87 467.62 431.56C468.51 430.25 464.62 423.13 464.62 423.13L449.25 419.97L444.94 423.23Z" fill="#FFDAC5"/>
<path d="M462.22 432.47L466.33 426.59L465.13 424.12L458.81 433.12L455.09 433.83L438.02 430.18L424.25 442.1C422.8 443.44 424 445.84 425.94 445.47L449.01 441.1L454.33 435.72L456.06 435.39L456.86 439.61L469.31 437.24L468.19 431.34L462.22 432.47Z" fill="#212237"/>
<path d="M479.49 361.03L494.11 423.8L513.56 418.89L503.18 355.58" fill="#FFDAC5"/>
<path d="M493.43 420.77L479.91 439.45C479.91 439.45 516.33 427.34 517.03 425.92C517.73 424.5 512.9 417.98 512.9 417.98L497.25 416.95L493.43 420.77Z" fill="#FFDAC5"/>
<path d="M511.81 427.56L515.08 421.17L513.56 418.89L508.53 428.67L504.94 429.88L487.53 428.6L475.52 442.29C474.26 443.81 475.79 446.03 477.66 445.4L499.92 437.92L504.45 431.86L506.12 431.3L507.49 435.37L519.5 431.32L517.58 425.63L511.81 427.56Z" fill="#212237"/>
<path d="M492.31 259.61C492.31 259.61 479.26 283.38 467.84 280.4C456.42 277.43 441.18 239.51 441.18 239.51L454.54 233.67C454.54 233.67 467.65 253.44 469.84 253.54C472.03 253.64 477.33 241.9 477.33 241.9" fill="#FFDAC5"/>
<path d="M456.93 237.22C456.93 237.22 446.65 221.48 445.79 221.48C444.92 221.48 446.36 224.47 445.65 224.34C444.94 224.21 441.57 217.54 440.7 217.77C439.53 218.08 442.75 224.02 442.75 224.02C442.75 224.02 441.83 222.89 440.89 223.45C440.22 223.85 440.77 225.65 440.77 225.65C440.77 225.65 439.78 224.96 439.1 225.4C438.42 225.83 438.95 227.38 438.95 227.38C438.95 227.38 438.03 226.09 437.25 227.04C436.52 227.93 439.63 236.51 443.72 245.53" fill="#FFDAC5"/>
<path d="M446.38 225.83C446.38 225.83 446.63 229.03 447.37 231.67" stroke="#F2A486" stroke-width="0.75" stroke-miterlimit="10" stroke-linejoin="round"/>
<path d="M540.63 236.29C546.6 246.97 544.48 302.83 544.48 302.83H485.6L485.15 270.01C482.92 264.78 480.69 259.09 481.03 255.04C481.94 244.08 492.59 236.29 492.59 236.29L505.33 222.33L518.93 222.97L540.63 236.29Z" fill="#6576EA"/>
<path d="M537.95 257.71C537.95 257.71 553.48 274.48 565.28 274.48C577.08 274.48 601.38 241.62 601.38 241.62L589.92 232.6C589.92 232.6 568.68 251.7 566.54 251.25C564.4 250.8 552.48 240.86 552.48 240.86" fill="#FFDAC5"/>
<path d="M518.93 222.97C518.93 222.97 533.54 222.21 540.58 227.17C546.49 231.33 558.16 244.75 558.16 244.75L540.54 262.98L526.82 249.73" fill="#6576EA"/>
<path d="M505.33 222.33C505.33 222.33 494.14 221.71 486.96 227.07C480.36 232 472.09 251 472.09 251L494.69 257.7L501.68 240" fill="#6576EA"/>
<path d="M540.55 262.99L526.83 249.74" stroke="#3B4EA8" stroke-width="0.75" stroke-miterlimit="10"/>
<path d="M490.01 238.59C489.18 238.64 480.09 248.99 481.1 256.07" stroke="#3B4EA8" stroke-width="0.75" stroke-miterlimit="10"/>
<path d="M586.72 235.44C586.72 235.44 600.63 222.8 601.47 223.02C602.31 223.24 600.16 225.77 600.88 225.82C601.6 225.87 606.54 220.26 607.32 220.7C608.38 221.3 603.76 226.23 603.76 226.23C603.76 226.23 609.09 221.04 609.86 221.83C610.4 222.39 605.27 228.31 605.27 228.31C605.27 228.31 609.83 224.51 610.38 225.09C610.93 225.67 606.6 230.43 606.6 230.43C606.6 230.43 610.56 227.37 611.1 227.89C611.63 228.41 603.64 239.1 597.41 246.79" fill="#FFDAC5"/>
<path d="M605.61 231.33C603.73 233.03 599.18 232.56 597.37 234.73" stroke="#F2A486" stroke-width="0.75" stroke-miterlimit="10" stroke-linejoin="round"/>
<path d="M599.8 227.07C599.8 227.07 598.76 230.1 597.37 232.47" stroke="#F2A486" stroke-width="0.75" stroke-miterlimit="10" stroke-linejoin="round"/>
<path d="M437.39 229.05C437.88 229.79 438.38 230.52 438.93 231.22C439.2 231.57 439.48 231.91 439.79 232.22C439.94 232.37 440.1 232.52 440.26 232.63C440.43 232.78 440.6 232.77 440.6 232.76C440.64 232.72 440.66 232.48 440.63 232.29C440.6 232.09 440.55 231.88 440.5 231.67C440.38 231.25 440.24 230.84 440.08 230.43C439.77 229.61 439.4 228.8 439.04 228.01C438.97 227.85 439.04 227.66 439.2 227.58C439.36 227.51 439.54 227.58 439.62 227.73C440.08 228.61 440.57 229.48 441.1 230.31C441.37 230.72 441.65 231.13 441.95 231.49C442.1 231.66 442.27 231.84 442.41 231.92C442.49 231.97 442.51 231.94 442.42 231.96C442.33 232.03 442.38 232.01 442.38 231.91C442.42 231.55 442.31 231.03 442.21 230.56C442.1 230.08 441.97 229.61 441.83 229.13C441.55 228.18 441.22 227.23 440.88 226.31V226.3C440.82 226.13 440.9 225.93 441.08 225.87C441.25 225.81 441.43 225.89 441.5 226.05C441.9 226.98 442.36 227.9 442.83 228.8C443.07 229.25 443.32 229.69 443.6 230.09C443.74 230.29 443.9 230.48 444.06 230.62C444.14 230.68 444.22 230.72 444.23 230.72C444.21 230.73 444.24 230.74 444.27 230.63C444.35 230.22 444.25 229.68 444.17 229.2C444.08 228.7 443.97 228.2 443.85 227.71C443.6 226.72 443.31 225.73 443.02 224.75C443.43 225.7 443.78 226.66 444.11 227.64C444.27 228.13 444.43 228.62 444.55 229.13C444.65 229.65 444.8 230.13 444.72 230.75C444.7 230.89 444.58 231.17 444.3 231.2C444.05 231.22 443.9 231.11 443.77 231.03C443.53 230.84 443.36 230.64 443.19 230.43C442.86 230.01 442.58 229.56 442.32 229.12C441.79 228.22 441.34 227.29 440.9 226.35L441.52 226.09C441.89 227.03 442.23 227.98 442.53 228.95C442.68 229.43 442.82 229.92 442.94 230.42C443.05 230.93 443.18 231.41 443.11 232.05C443.08 232.2 443.06 232.45 442.73 232.64C442.41 232.77 442.16 232.64 442.03 232.56C441.74 232.38 441.57 232.17 441.4 231.97C441.06 231.56 440.78 231.13 440.51 230.7C439.97 229.83 439.5 228.95 439.04 228.04L439.62 227.76C439.99 228.58 440.3 229.42 440.58 230.27C440.72 230.7 440.85 231.13 440.95 231.58C441 231.8 441.04 232.03 441.06 232.27C441.06 232.51 441.14 232.76 440.89 233.08C440.74 233.23 440.5 233.21 440.38 233.17C440.24 233.12 440.13 233.05 440.03 232.97C439.83 232.82 439.68 232.65 439.53 232.48C439.23 232.13 438.98 231.77 438.73 231.39C438.24 230.62 437.8 229.85 437.39 229.05Z" fill="#F2A486"/>
<path d="M503.24 191.96C500.73 196.25 496.53 208.07 495.84 214.65C495.8 215.04 502.74 215.98 503.42 216.06C504.64 216.2 507.67 216.49 508.89 216.3C509.94 216.14 508.83 214.2 508.99 213.22C509.65 209.34 511.97 195.89 512.21 191.96" fill="#FF7383"/>
<path d="M505.69 190.88C505.69 190.88 498.35 205.56 501.53 211.97C503.79 216.53 509.75 217.21 513.5 215.65C516.28 214.49 523.09 204.38 522.46 201.91C520.04 192.46 505.69 190.88 505.69 190.88Z" fill="#FFDAC5"/>
<path d="M518.73 212.02L520.08 222.55C520.08 222.55 513.12 229.08 505.33 222.33L506.62 211.61L518.73 212.02Z" fill="#FFDAC5"/>
<path d="M514.33 218.25C519.75 217.8 523.42 216.92 528.16 215.07C528.54 211.55 528.74 200.91 526.46 195.41C525.31 192.64 523.38 189.91 520.56 188.84C517.47 187.67 514.41 187.67 511.16 188.5C507.57 186.06 500.98 187.25 500.04 194.46C505.67 193.86 509.57 194.56 515.17 195.44C515.2 197.99 515.45 200.53 515.9 203.04C516.24 205 515.96 215.08 514.33 218.25Z" fill="#FF6675"/>
<path d="M506.06 216.25C511.72 216.84 514.21 214.39 514.21 214.39" stroke="#F2A486" stroke-width="0.75" stroke-miterlimit="10" stroke-linejoin="round"/>
<path d="M506.68 201.81C506.68 201.81 503.85 205.26 503.96 206.32C504.07 207.38 506.52 207.77 506.52 207.77" stroke="#F2A486" stroke-width="0.75" stroke-miterlimit="10" stroke-linejoin="round"/>
<path d="M503.51 208.76L510.13 210.44C510.13 210.44 508.46 213.77 504.9 212.59C502.34 211.76 503.51 208.76 503.51 208.76Z" fill="white"/>
<path d="M503.61 200.32C503.45 200.62 503.31 200.92 503.19 201.23C503 201.7 503.76 201.91 503.95 201.44C504.06 201.16 504.16 200.87 504.24 200.58C504.34 200.22 503.79 199.98 503.61 200.32Z" fill="#00276F"/>
<path d="M505.32 198.99C505.32 198.99 504.44 197.49 502.83 198.41" stroke="#00276F" stroke-width="0.5" stroke-miterlimit="10" stroke-linecap="round" stroke-linejoin="round"/>
<path d="M511.42 202.96C511.28 203.26 511.15 203.58 511.05 203.89C510.89 204.37 511.65 204.58 511.81 204.1C511.91 203.81 511.99 203.52 512.05 203.22C512.13 202.86 511.59 202.59 511.42 202.96Z" fill="#00276F"/>
<path d="M511.31 200.34C511.31 200.34 513.02 199.96 514.51 202.09" stroke="#00276F" stroke-width="0.5" stroke-miterlimit="10" stroke-linecap="round" stroke-linejoin="round"/>
<path d="M515.26 205.8C516.8 203.44 518.18 203.73 519 204.95C520.09 206.57 518.33 210.14 517.44 210.77C515.64 212.06 514.45 211.64 514.21 210.02" fill="#FFDAC5"/>
<path d="M544.48 302.83C544.48 302.83 557.17 344.11 526.41 344.11H506.23C504.97 344.11 504.01 345.24 504.22 346.49L508.62 372.62H437.31C437.31 372.62 433.14 330.33 435.08 322.33C437.31 313.13 446.55 302.81 463.5 302.81C480.45 302.81 486.75 302.41 486.75 302.41" fill="#423EAC"/>
<path d="M271.74 354.3L254.15 445.5" stroke="#3D4FB7" stroke-miterlimit="10"/>
<path d="M309.51 354.3L327.1 445.5" stroke="#3D4FB7" stroke-miterlimit="10"/>
<path d="M289.7 354.3L284.86 445.5" stroke="#3D4FB7" stroke-miterlimit="10"/>
<path d="M284.91 215.8C196.71 215.8 219.45 356.13 257.24 356.13C295.03 356.13 343.6 356.13 343.6 356.13C355.33 356.13 358.72 341.32 346.53 341.32C334.34 341.32 324.89 341.32 324.89 341.32C324.89 341.32 349.27 215.8 284.91 215.8Z" fill="#E8EEFE"/>
<path d="M266.14 344.3C303.93 344.3 352.5 344.3 352.5 344.3C352.79 344.3 353.07 344.29 353.35 344.27C352.25 342.54 350.04 341.32 346.54 341.32C334.35 341.32 324.9 341.32 324.9 341.32C324.9 341.32 346.3 231.15 296.07 217.24C295.32 217.21 294.58 217.18 293.81 217.18C205.6 217.18 228.35 344.3 266.14 344.3Z" fill="#CDDBFC"/>
<path d="M341.89 398.42L334.79 430.49L344.97 440.76L313.96 427.74L320.08 391.26" fill="#FFDAC5"/>
<path d="M336.44 426.54C337.4 427.09 336.53 427.72 337.85 430.22C339.18 432.72 345.73 437.03 350.23 439.39C354.59 441.67 352.85 445.76 351.28 445.49C351.28 445.49 328.32 441.53 326.5 441.22C324.68 440.91 323.08 438.53 322.21 438.35L320.74 438.05L320.3 439.91C320.27 440.04 320.14 440.12 320.01 440.1L311.84 438.69C310.9 438.53 310.46 437.78 310.65 437.04C310.65 437.04 313.04 428.02 313.07 427.21C313.1 426.4 313.02 424.96 313.76 424.41C314.49 423.87 315.08 425.47 316.44 425.9C320.11 427.06 326.76 428.42 328.98 428.12C330.21 427.96 329.15 426.79 329.73 426.35C330.31 425.91 335.49 425.99 336.44 426.54Z" fill="#313131"/>
<path d="M310.9 436.06L352.62 444.17" stroke="#515151" stroke-width="0.75" stroke-miterlimit="10"/>
<path d="M390.34 393.81L394.46 429.11L407.75 434.83L374.12 434.36L367.44 395.33" fill="#FFDAC5"/>
<path d="M394.51 424.83C395.6 424.98 395.03 425.89 397.2 427.71C399.37 429.53 407.05 431.08 412.11 431.58C417 432.07 416.93 436.51 415.37 436.84C415.37 436.84 392.6 441.76 390.79 442.15C388.98 442.54 386.61 440.93 385.74 441.09L384.26 441.36L384.55 443.25C384.57 443.38 384.48 443.51 384.35 443.53L376.25 445.28C375.31 445.48 374.63 444.96 374.53 444.2C374.53 444.2 373.37 434.94 373.09 434.18C372.81 433.42 372.2 432.11 372.68 431.33C373.16 430.55 374.3 431.82 375.72 431.71C379.56 431.42 386.23 430.18 388.18 429.08C389.26 428.47 387.84 427.78 388.21 427.16C388.6 426.54 393.42 424.68 394.51 424.83Z" fill="#313131"/>
<path d="M374.39 443.21L416.11 435.13" stroke="#515151" stroke-width="0.75" stroke-miterlimit="10"/>
<path d="M298 306.64C291.6 315.47 290.03 344.11 308.83 344.11C327.63 344.11 352.52 344.11 352.52 344.11L363.25 423.71L395.14 419.59C395.14 419.59 385.25 341.76 383.94 335.19C381.4 322.45 374.66 310.48 355.37 310.48C337.22 310.48 320.46 310.48 320.46 310.48" fill="#212121"/>
<path d="M313.98 332.82H353.05C355.69 332.82 357.93 334.78 358.28 337.4L369.8 422.87" stroke="#313131" stroke-miterlimit="10"/>
<path d="M261.61 306.64C255.21 315.47 252.07 344.11 272.44 344.11C292.81 344.11 320.01 344.11 320.01 344.11L309.88 419.29L342.8 423.72C342.8 423.72 355.17 341.8 356.27 335.19C357.37 328.58 357.84 310.48 332.2 310.48C314.05 310.48 284.06 310.48 284.06 310.48" fill="#313131"/>
<path d="M268.82 306.64C259.59 318.25 261.79 338.48 276.11 338.48H322.95C325.25 338.48 326.89 340.72 326.19 342.91L314.2 419.86" stroke="#515151" stroke-width="0.75" stroke-miterlimit="10"/>
<path d="M263.93 317.04C263.93 317.04 272.45 317.04 279.55 306.64" stroke="#515151" stroke-width="0.75" stroke-miterlimit="10"/>
<path d="M361.82 241.82C361.82 241.82 372.76 226.54 373.62 226.57C374.49 226.61 372.92 229.53 373.64 229.43C374.36 229.33 378.01 222.81 378.86 223.07C380.02 223.43 376.54 229.22 376.54 229.22C376.54 229.22 377.51 228.13 378.43 228.73C379.08 229.16 378.45 230.93 378.45 230.93C378.45 230.93 379.47 230.29 380.13 230.75C380.79 231.21 380.19 232.73 380.19 232.73C380.19 232.73 381.17 231.48 381.9 232.47C382.59 233.4 379.11 241.83 374.64 250.66" fill="#FFDAC5"/>
<path d="M372.84 230.89C372.84 230.89 372.46 234.08 371.6 236.68" stroke="#F2A486" stroke-width="0.75" stroke-miterlimit="10" stroke-linejoin="round"/>
<path d="M381.68 234.5C381.24 235.27 380.76 236.03 380.24 236.75C379.98 237.11 379.7 237.47 379.39 237.8C379.23 237.97 379.07 238.13 378.87 238.27C378.78 238.34 378.66 238.41 378.52 238.45C378.4 238.49 378.15 238.5 378.01 238.34C377.77 238.01 377.87 237.76 377.87 237.52C377.9 237.28 377.95 237.06 378.01 236.84C378.13 236.4 378.28 235.97 378.44 235.55C378.76 234.71 379.11 233.89 379.51 233.08L380.08 233.38C379.59 234.27 379.07 235.13 378.5 235.98C378.21 236.4 377.91 236.82 377.56 237.21C377.37 237.41 377.2 237.6 376.9 237.77C376.77 237.84 376.52 237.97 376.2 237.82C375.88 237.62 375.87 237.36 375.85 237.21C375.81 236.57 375.96 236.1 376.09 235.59C376.23 235.1 376.39 234.61 376.57 234.14C376.92 233.19 377.3 232.26 377.71 231.33L378.32 231.61C377.84 232.53 377.36 233.44 376.79 234.32C376.5 234.76 376.21 235.19 375.86 235.59C375.68 235.79 375.5 235.99 375.25 236.17C375.12 236.25 374.97 236.35 374.72 236.32C374.43 236.27 374.33 235.99 374.32 235.85C374.26 235.23 374.43 234.75 374.56 234.24C374.71 233.74 374.88 233.25 375.06 232.77C375.43 231.81 375.83 230.86 376.27 229.93C375.93 230.9 375.6 231.87 375.31 232.86C375.16 233.35 375.03 233.85 374.92 234.34C374.82 234.82 374.69 235.36 374.76 235.77C374.79 235.88 374.81 235.87 374.79 235.86C374.8 235.86 374.89 235.83 374.97 235.77C375.14 235.64 375.3 235.45 375.45 235.26C375.75 234.87 376.02 234.44 376.28 234C376.79 233.12 377.28 232.23 377.72 231.31C377.8 231.14 378 231.07 378.17 231.16C378.33 231.24 378.4 231.43 378.33 231.59V231.6C377.94 232.51 377.58 233.45 377.26 234.38C377.1 234.85 376.95 235.32 376.82 235.79C376.71 236.25 376.57 236.76 376.6 237.13C376.6 237.22 376.65 237.24 376.56 237.17C376.48 237.14 376.5 237.18 376.58 237.13C376.72 237.06 376.9 236.89 377.06 236.72C377.38 236.38 377.68 235.98 377.96 235.58C378.53 234.77 379.05 233.92 379.55 233.06C379.64 232.91 379.83 232.85 379.99 232.94C380.14 233.02 380.19 233.21 380.12 233.36C379.73 234.14 379.32 234.93 378.98 235.74C378.81 236.14 378.64 236.55 378.51 236.96C378.45 237.17 378.39 237.37 378.35 237.57C378.31 237.76 378.31 238.01 378.36 238.04C378.36 238.05 378.53 238.07 378.71 237.93C378.88 237.83 379.05 237.69 379.2 237.54C379.52 237.25 379.81 236.92 380.1 236.58C380.63 235.93 381.16 235.21 381.68 234.5Z" fill="#F2A486"/>
<path d="M266.53 224.57C263.85 231.96 261.41 310.48 261.41 310.48H336.22C336.22 310.48 328.65 251.81 323.32 238.6L304.25 221.48L287.76 220.37C287.75 220.37 281.71 219.51 266.53 224.57Z" fill="#FF6675"/>
<path d="M308.55 197.58L304.24 200.92" stroke="#212237" stroke-width="0.5" stroke-miterlimit="10"/>
<path d="M303.67 190.88C303.67 190.88 311.43 205.72 308.38 212.2C306.79 215.57 299.61 217.21 295.86 215.65C293.08 214.49 286.27 204.38 286.9 201.91C289.31 192.46 303.67 190.88 303.67 190.88Z" fill="#FFDAC5"/>
<path d="M289.81 212.02L287.75 220.37C291.28 222.92 298.05 225.33 304.24 221.48L304.9 211.62L289.81 212.02Z" fill="#FFDAC5"/>
<path d="M284.67 209.58C283.16 206.5 282.74 205.1 281.88 201.25C280.99 197.23 283.97 195.77 283.97 195.77C283.97 195.77 283.48 196.28 284.83 192.6C285.53 190.7 288.29 188.88 290.16 188.35C291.36 188.01 292.65 187.81 293.66 187.07C294.45 186.5 295 185.65 295.77 185.07C297.12 184.05 299.12 183.98 300.54 184.92C301.81 185.76 302.64 187.31 304.11 187.71C304.68 187.86 305.29 187.82 305.86 187.95C306.85 188.18 307.66 188.94 308.1 189.85C308.54 190.76 308.62 191.81 308.49 192.82C308.39 193.58 308.16 194.36 307.63 194.92C306.57 196.06 304.75 195.95 303.21 195.71C301.67 195.46 299.92 195.21 298.7 196.19C298.03 196.73 297.64 197.57 296.9 198.01C296.15 198.46 295.19 198.4 294.35 198.66C293.25 199.01 292.37 199.97 292.11 201.09C291.97 201.72 292.01 202.37 291.92 203.01C291.79 203.91 291.38 204.74 291.1 205.61C290.18 208.42 292.63 210.53 292.38 213.29C292.29 214.3 288.91 215.65 288.91 215.65C288.91 215.65 286.31 212.93 284.67 209.58Z" fill="#2D2E35"/>
<path d="M304.24 215.65C299.23 216.72 295.14 215.76 295.14 215.76" stroke="#F2A486" stroke-width="0.75" stroke-miterlimit="10" stroke-linejoin="round"/>
<path d="M302.67 201.81C302.67 201.81 305.5 205.26 305.39 206.32C305.28 207.38 302.83 207.77 302.83 207.77" stroke="#F2A486" stroke-width="0.75" stroke-miterlimit="10" stroke-linejoin="round"/>
<path d="M305.85 208.76L299.23 210.44C299.23 210.44 300.9 213.77 304.46 212.59C307.01 211.76 305.85 208.76 305.85 208.76Z" fill="white"/>
<path d="M305.12 200.59C305.2 200.88 305.3 201.17 305.41 201.45C305.6 201.92 306.36 201.71 306.17 201.24C306.05 200.93 305.91 200.62 305.75 200.33C305.56 199.98 305.02 200.22 305.12 200.59Z" fill="#00276F"/>
<path d="M304.03 198.99C304.03 198.99 304.91 197.49 306.52 198.41" stroke="#00276F" stroke-width="0.5" stroke-miterlimit="10" stroke-linecap="round" stroke-linejoin="round"/>
<path d="M297.31 203.22C297.37 203.52 297.45 203.81 297.55 204.1C297.71 204.58 298.47 204.37 298.31 203.89C298.2 203.57 298.08 203.26 297.94 202.96C297.76 202.59 297.23 202.86 297.31 203.22Z" fill="#00276F"/>
<path d="M298.05 200.34C298.05 200.34 296.34 199.96 294.85 202.09" stroke="#00276F" stroke-width="0.5" stroke-miterlimit="10" stroke-linecap="round" stroke-linejoin="round"/>
<path d="M301.17 203.1C301.17 205.35 299.35 207.17 297.1 207.17C294.85 207.17 293.03 205.35 293.03 203.1C293.03 200.85 294.85 199.03 297.1 199.03C299.35 199.03 301.17 200.85 301.17 203.1Z" stroke="#212237" stroke-width="0.5" stroke-miterlimit="10"/>
<path d="M309.29 199C310.02 201.13 309.31 203.29 307.71 203.84C306.11 204.39 304.22 203.11 303.5 200.98C302.77 198.85 303.48 196.69 305.08 196.14C306.68 195.59 308.56 196.88 309.29 199Z" stroke="#212237" stroke-width="0.5" stroke-miterlimit="10"/>
<path d="M303.26 199.99L300.53 200.92" stroke="#212237" stroke-width="0.5" stroke-miterlimit="10"/>
<path d="M293.06 203.56L289.5 207.78" stroke="#212237" stroke-width="0.5" stroke-miterlimit="10"/>
<path d="M294.48 212.03C294.64 213.66 293.18 214.08 291.12 213.27C290.1 212.87 287.52 209.84 288.18 208C288.68 206.62 289.94 206 292.01 207.91" fill="#FFDAC5"/>
<path d="M304.24 221.48C304.24 221.48 321.31 220.2 329.61 230.42C334.73 236.74 342.86 261.81 342.86 261.81L363.18 237.3L378.47 246.7C378.47 246.7 359.75 292.72 342.81 292.72C318.75 292.72 310.4 249.31 310.4 249.31" fill="#FF6675"/>
<path d="M333.36 289.87C332.38 281.63 327.9 247.22 324.43 241.9" stroke="#C93F53" stroke-width="0.75" stroke-miterlimit="10"/>
<path d="M285.54 220.44L288.44 217.55C288.44 217.55 294.33 222.81 298.8 223.39L295.82 229.56C289.5 228.51 285.54 220.44 285.54 220.44Z" fill="white"/>
<path d="M304.62 218.54C302.6 222.15 298.81 223.39 298.81 223.39L302.67 229C305.91 226.32 306.39 221.43 306.39 221.43L304.62 218.54Z" fill="white"/>
<path d="M360.79 240.1L376.36 250.81" stroke="#C93F53" stroke-width="0.75" stroke-miterlimit="10"/>
<path d="M307.21 274.73C307.21 274.73 324.55 277.94 324.89 278.74C325.23 279.54 321.91 279.38 322.31 279.98C322.71 280.58 330.36 280.74 330.48 281.63C330.65 282.83 323.74 282.51 323.74 282.51C323.74 282.51 331.29 283.24 331.14 284.32C331.03 285.09 325.24 284.8 323.01 284.97C325.45 285.1 329.37 285.77 329.24 286.57C329.11 287.36 325.17 287.25 322.14 287.32C324.03 287.45 327.47 287.87 327.38 288.61C327.29 289.35 314.23 289.84 305.17 289.86" fill="#FFDAC5"/>
<path d="M281.19 220.81C273.58 221.68 262.06 224.51 258.21 232.23C252.01 244.64 246.47 290.02 260.12 290.02C273.77 290.02 308.55 290.02 308.55 290.02V274L274.44 269.08C274.22 265.28 276.45 245.25 276.45 245.25" fill="#FF6675"/>
<path d="M308.55 273.99L274.44 269.07C274.22 265.27 276.45 245.24 276.45 245.24" stroke="#C93F53" stroke-width="0.75" stroke-miterlimit="10"/>
<path d="M303.45 273.25L302.95 290.01" stroke="#C93F53" stroke-width="0.75" stroke-miterlimit="10"/>
<path d="M297.57 287.59H340.81V290.01H295.15C295.14 288.67 296.23 287.59 297.57 287.59Z" fill="#C9CED6"/>
<path d="M393.5 290.01H332.75L344.37 252.68C344.97 250.77 346.74 249.46 348.74 249.46H403.67C404.89 249.46 405.76 250.64 405.4 251.81L393.5 290.01Z" fill="#C9CED6"/>
<path d="M396.23 290.01H335.48L347.1 252.68C347.7 250.77 349.47 249.46 351.47 249.46H406.4C407.62 249.46 408.49 250.64 408.13 251.81L396.23 290.01Z" fill="#E8EAEF"/>
<path d="M375.055 273.328C377.29 272.728 378.746 270.914 378.307 269.277C377.867 267.639 375.699 266.798 373.464 267.397C371.229 267.997 369.773 269.81 370.212 271.448C370.652 273.086 372.82 273.927 375.055 273.328Z" fill="#C9CED6"/>
<path d="M437.41 285.08H434.17V283.54H437.41C438.45 283.54 439.3 282.69 439.3 281.65V278.99C439.3 277.95 438.45 277.1 437.41 277.1H434.17V275.56H437.41C439.3 275.56 440.85 277.1 440.85 279V281.66C440.85 283.54 439.31 285.08 437.41 285.08Z" fill="#E8EAEF"/>
<path d="M430.48 289.14H429.66C426.28 289.14 423.54 286.4 423.54 283.02V273.36H436.61V283.02C436.6 286.4 433.86 289.14 430.48 289.14Z" fill="#E8EAEF"/>
<path d="M421.42 286.94C421.42 286.94 421.55 290.01 426.32 290.01H433.81C438.59 290.01 438.71 286.94 438.71 286.94H421.42Z" fill="#CFDAE5"/>
<path d="M553.01 287.59H509.77L509.64 290.01H555.3C555.38 288.67 554.35 287.59 553.01 287.59Z" fill="#C9CED6"/>
<path d="M456.95 290.01H517.7L508.04 252.68C507.54 250.77 505.84 249.46 503.84 249.46H448.91C447.69 249.46 446.76 250.64 447.06 251.81L456.95 290.01Z" fill="#C9CED6"/>
<path d="M454.22 290.01H514.97L505.31 252.68C504.81 250.77 503.11 249.46 501.11 249.46H446.18C444.96 249.46 444.03 250.64 444.33 251.81L454.22 290.01Z" fill="#E8EAEF"/>
<path d="M473.17 270.35C473.43 272.09 475.47 273.5 477.72 273.5C479.97 273.5 481.58 272.09 481.31 270.35C481.05 268.61 479.01 267.2 476.76 267.2C474.52 267.19 472.91 268.6 473.17 270.35Z" fill="#C9CED6"/>
<path d="M549.44 285.08H546.2V283.54H549.44C550.48 283.54 551.33 282.69 551.33 281.65V278.99C551.33 277.95 550.48 277.1 549.44 277.1H546.2V275.56H549.44C551.33 275.56 552.88 277.1 552.88 279V281.66C552.87 283.54 551.33 285.08 549.44 285.08Z" fill="#E8EAEF"/>
<path d="M542.5 290.01H541.68C538.3 290.01 535.56 287.27 535.56 283.89V273.36H548.63V283.89C548.63 287.27 545.89 290.01 542.5 290.01Z" fill="#E8EAEF"/>
<path d="M533.45 286.94C533.45 286.94 533.58 290.01 538.35 290.01H545.84C550.62 290.01 550.74 286.94 550.74 286.94H533.45Z" fill="white"/>
<path d="M637.43 344.8C636.72 345.31 636.12 346.03 635.86 346.89C635.3 348.76 636.4 350.68 637.44 352.31C640.06 356.38 642.68 360.44 645.3 364.51C647.34 367.68 653.06 374.31 657.24 371.31C660.72 368.81 658.75 362.86 657.13 359.78C654.89 355.51 651.96 351.58 648.63 348.18C647.12 346.64 645.48 345.16 643.5 344.37C641.54 343.57 639.18 343.56 637.43 344.8Z" fill="#93A5F9"/>
<path d="M639.85 347.32C644.41 351.9 648.33 357.17 651.46 362.91" stroke="#7289F7" stroke-miterlimit="10"/>
<path d="M656.41 297.9C655.7 298.41 655.1 299.13 654.84 299.99C654.28 301.86 655.37 303.78 656.42 305.41C659.04 309.48 661.66 313.54 664.28 317.61C666.32 320.78 672.04 327.41 676.22 324.41C679.7 321.91 677.73 315.96 676.11 312.88C673.87 308.61 670.94 304.68 667.61 301.28C666.1 299.74 664.46 298.26 662.48 297.47C660.51 296.67 658.15 296.65 656.41 297.9Z" fill="#CDDBFC"/>
<path d="M658.82 300.41C663.38 304.99 667.3 310.26 670.43 316" stroke="#7289F7" stroke-miterlimit="10"/>
<path d="M622.11 341.39C618.94 338.93 613.73 340.28 610.39 341.61C603.68 344.29 597.26 348.7 593.87 355.3C592.16 358.63 591.31 362.65 592.51 366.18C593.27 368.43 595.29 370.53 597.57 370.14C598.37 370 599.09 369.57 599.78 369.14C605.66 365.48 611.04 360.94 615.71 355.72C618.55 352.56 627.58 345.92 622.11 341.39Z" fill="#93A5F9"/>
<path d="M603.68 358.88C608.63 352.93 614.47 347.79 620.92 343.69" stroke="#7289F7" stroke-miterlimit="10"/>
<path d="M633.97 276.26C633.29 271.14 629.07 267.34 624.72 264.87C617.01 260.5 607.38 258.86 599.43 262.73C598.55 263.16 597.61 263.76 597.37 264.75C597.17 265.59 597.53 266.46 597.95 267.2C599.43 269.86 601.64 272.02 604.04 273.81C610.12 278.35 617.14 279.91 623.78 283.05C627.6 284.86 632.44 286.07 635.72 283.34" fill="#93A5F9"/>
<path d="M612.41 293.94C626.57 323.43 621.96 355.64 628.45 387.92" stroke="#3F71EF" stroke-miterlimit="10"/>
<path d="M658.88 288.79C656.31 288.94 655.12 292.13 654.56 294.75C649.13 320.47 644.42 356.45 644.46 382.79" stroke="#3F71EF" stroke-miterlimit="10"/>
<path d="M605.73 326.31C617.01 347.71 612.68 371.44 620.12 394.6" stroke="#3F71EF" stroke-miterlimit="10"/>
<path d="M606.22 321.14C602.74 317.73 596.35 318.58 592.21 319.68C583.88 321.89 575.66 326.23 570.81 333.63C568.36 337.37 566.84 342.05 567.84 346.46C568.47 349.27 570.62 352.08 573.38 351.94C574.35 351.89 575.26 351.49 576.15 351.07C583.62 347.56 590.6 342.93 596.82 337.36C600.59 333.98 612.19 327.37 606.22 321.14Z" fill="#93A5F9"/>
<path d="M582.07 339.35C588.71 332.96 596.31 327.67 604.52 323.71" stroke="#7289F7" stroke-miterlimit="10"/>
<path d="M614.7 295.67C613.39 291.62 604.51 291.14 601.17 290.93C597.35 290.69 593.38 291.31 590.09 293.36C586.8 295.41 584.3 299.04 584.13 303.03C584.1 303.63 584.14 304.26 584.41 304.8C584.79 305.54 585.57 305.96 586.32 306.28C589.77 307.72 593.62 307.84 597.29 307.25C600.96 306.67 604.5 305.41 608.02 304.16C609.53 303.62 611.06 303.07 612.33 302.07C614.06 300.69 615.36 297.92 614.7 295.67Z" fill="#CDDBFC"/>
<path d="M593.15 298.73C599.53 297 606.17 296.31 612.75 296.71" stroke="#7289F7" stroke-miterlimit="10"/>
<path d="M593.88 330.33C593.22 334.59 591.5 345.4 596.47 347.72C602.96 350.76 610.64 335.39 612.89 330.96C615.32 326.18 617.76 321.39 619.55 316.31C620.74 312.94 621.42 308.6 618.84 306.22C617.4 304.89 615.3 304.62 613.39 304.88C609.53 305.41 606.13 307.84 603.36 310.7C598.28 315.96 595.02 322.99 593.88 330.33Z" fill="#CDDBFC"/>
<path d="M602.01 331.77C605.62 323.14 610.54 315.1 616.52 308.04" stroke="#7289F7" stroke-miterlimit="10"/>
<path d="M613.29 269.85C619.65 271.43 625.7 274.39 630.92 278.49" stroke="#7289F7" stroke-miterlimit="10"/>
<path d="M639.62 276.28C639.62 276.28 638.86 303.62 639.91 326.66C640.81 346.37 640.27 363.16 638.31 382.78" stroke="#3F71EF" stroke-miterlimit="10"/>
<path d="M638.15 270.21C635.66 270.07 633.34 271.76 631.94 273.91C630.55 276.06 629.91 278.64 629.29 281.16C628.16 285.8 625.87 289.87 624.72 294.55C623.49 299.51 623.01 304.67 623.3 309.79C623.45 312.43 624.01 315.41 626.15 316.83C627.62 317.81 629.55 317.79 631.17 317.13C632.79 316.47 634.14 315.24 635.3 313.89C639.02 309.58 641.14 303.97 642.18 298.27C643.29 292.2 643.18 286.02 644.27 280.03C645.14 275.37 643.02 270.65 638.15 270.21Z" fill="#CDDBFC"/>
<path d="M628.99 308.53C630.42 296.66 633.65 285.02 638.51 274.17" stroke="#7289F7" stroke-miterlimit="10"/>
<path d="M652.87 424.61H614.43L607.03 376.19H660.27L652.87 424.61Z" fill="#E8EEFE"/>
<path d="M658.18 389.86L658.61 387.04H608.69L609.12 389.86H658.18Z" fill="#3D4FB7"/>
<path d="M616.87 388.45L605.18 445.5" stroke="#3D4FB7" stroke-miterlimit="10"/>
<path d="M650.18 388.45L661.86 445.5" stroke="#3D4FB7" stroke-miterlimit="10"/>
<path d="M633.52 388.45V445.5" stroke="#3D4FB7" stroke-miterlimit="10"/>
<path d="M651.45 314.22C654.15 311.59 660.28 313.12 663.6 314.17C668.56 315.74 673.39 318.79 677.5 322.03C680.19 324.15 682.73 326.6 684.36 329.66C685.99 332.72 686.61 336.49 685.38 339.69C684.93 340.86 684.21 341.96 683.18 342.62C682.4 343.11 681.48 343.33 680.57 343.46C677.25 343.91 673.76 343.18 670.83 341.4C668.43 339.95 666.45 337.86 664.51 335.8C660.75 331.82 656.96 327.85 653.15 323.96C650.41 321.18 648.2 317.58 651.45 314.22Z" fill="#93A5F9"/>
<path d="M677.3 332.79C670.16 326.27 662.03 320.87 653.3 316.85" stroke="#7289F7" stroke-miterlimit="10"/>
<path d="M619.16 326.68C617.39 329.58 624.9 336.62 626.59 338.35C630.49 342.35 634.84 345.88 639.53 348.81C643.68 351.4 648.54 353.6 653.24 352.41C654.95 351.98 656.67 350.98 657.37 349.3C657.89 348.06 657.77 346.63 657.54 345.3C656.88 341.47 655.32 337.81 653.04 334.72C649.05 329.33 643.1 326.05 636.88 324.34C631.62 322.9 622.59 320.61 619.16 326.68Z" fill="#CDDBFC"/>
<path d="M622.65 327.48C631.68 332.21 640.47 337.45 648.97 343.17" stroke="#7289F7" stroke-miterlimit="10"/>
<path d="M652.58 293.3C654.61 286.29 663.21 287.78 668.02 286.74C672.05 285.86 676.17 285.19 680.28 285.48C684.39 285.77 688.53 287.1 691.7 289.85C693.06 291.03 694.26 292.54 694.66 294.34C695.34 297.46 693.45 300.6 691.16 302.74C684.29 309.17 676.8 308.08 668.81 305.65C663.26 303.94 649.03 303.28 652.58 293.3Z" fill="#CDDBFC"/>
<path d="M688.53 300.74C677.97 297.15 666.87 295.3 655.76 295.26" stroke="#7289F7" stroke-miterlimit="10"/>
<path d="M136.6 298.62C140.07 298.07 143.75 297.54 146.99 299.01C149.9 300.33 152.02 303.05 154.31 305.4C156.6 307.75 159.48 309.9 162.62 309.59C165.93 309.25 168.62 305.98 169.05 302.4C169.48 298.82 167.92 295.17 165.45 292.75C162.99 290.33 159.73 289.03 156.44 288.49C153.15 287.95 149.81 288.13 146.49 288.33" fill="#93A5F9"/>
<path d="M157.16 326.85C159.62 327.06 162.14 327.36 164.36 328.49C166.58 329.62 168.48 331.76 168.73 334.33C168.98 336.89 167.11 339.68 164.64 339.72C163.11 339.75 161.72 338.82 160.6 337.74C159.37 336.56 158.26 335.23 156.93 334.16C155.42 332.95 153.69 332.43 151.92 331.78C150 331.08 147.97 329.94 147.36 327.92" fill="#93A5F9"/>
<path d="M124.7 350.54C124.38 342.59 127.43 334.46 133.18 329.23C138.92 324 147.32 321.94 154.56 324.44C157.52 325.46 161.61 326.6 165.27 329.03C154.7 327.68 145.43 336.57 143.74 337.83C142.67 338.63 141.7 339.57 140.71 340.48C136.55 344.32 129.65 347.92 124.7 350.54Z" fill="#CDDBFC"/>
<path d="M119.13 331.9C119.75 328.1 118.65 324.27 117.93 320.49C116.45 312.79 116.63 304.46 120.11 297.5C123.6 290.54 130.9 285.34 138.39 286.16C141.1 286.46 143.68 287.48 146.37 287.96C148.9 288.41 151.48 288.35 154.05 288.3C155.19 288.28 156.73 288.61 157.58 289.16C150.25 291.05 146.13 297.85 138.97 301.73C131.62 305.71 130.63 319.92 119.13 331.9Z" fill="#CDDBFC"/>
<path d="M113.06 322.63C112.78 318.58 110.3 315.06 107.48 312.26C104.66 309.46 101.41 307.13 98.86 304.07C97.32 302.22 96.07 300.14 94.83 298.08C93 295.04 91.17 292 89.35 288.97C88.19 287.05 87.04 285.13 86.07 283.09C85.01 280.85 84.2 278.5 83.44 276.13C82.69 273.79 81.98 271.43 81.33 269.05C80.83 267.23 80.36 265.37 80.34 263.48C80.32 261.58 80.8 259.62 82.01 258.2C83.61 256.32 86.27 255.69 88.65 256.11C91.03 256.52 93.18 257.83 95.14 259.31C96.35 260.22 97.51 261.21 98.46 262.4C101.01 265.6 101.77 269.91 103.17 273.8C105.7 280.8 110.49 286.77 112.66 293.91C113.36 296.2 113.77 298.58 114.12 300.96C114.84 305.96 115.69 317.12 113.06 322.63Z" fill="#CDDBFC"/>
<path d="M90.15 264.35C94.25 272.28 98.34 280.2 102.44 288.13C103.96 291.08 105.49 294.03 106.79 297.09C113.88 313.75 116.18 352.56 115.5 377.96" stroke="#7289F7" stroke-miterlimit="10"/>
<path d="M145.48 288.28C141.78 287.89 138.16 289.71 135.24 292.11C126.02 299.71 122.53 312.51 120.6 324.59C118.27 339.21 117.45 354.09 118.16 368.89" stroke="#7289F7" stroke-miterlimit="10"/>
<path d="M156.55 326.27C148.63 324.37 140.08 327.75 134.29 333.69C128.5 339.63 125.2 347.82 123.65 356.14C122.1 364.46 122.17 373 122.25 381.48" stroke="#7289F7" stroke-miterlimit="10"/>
<path d="M101.91 321.09C93.62 310.58 81.34 302.32 68.25 305.54C62.85 306.87 57.7 309.23 52.59 311.61C64.31 309.1 68.36 309.36 76.69 313.56C84.95 317.72 89.52 328.17 94.81 336.01C96.46 338.46 107.17 351.9 107.9 343.62C108.57 336.03 106.47 326.87 101.91 321.09Z" fill="#93A5F9"/>
<path d="M63.8 306.88C73.04 305.08 83.06 305.98 90.15 312.81C97.24 319.64 104.4 335.24 107.4 345.13C110.39 355.02 111.78 365.41 113.16 375.73" stroke="#7289F7" stroke-miterlimit="10"/>
<path d="M132.67 407.83H99.66L93.3 366.24H139.03L132.67 407.83Z" fill="#E8EEFE"/>
<path d="M137.23 377.98L137.6 375.56H94.72L95.09 377.98H137.23Z" fill="#3D4FB7"/>
<path d="M101.75 376.77L91.71 445.5" stroke="#3D4FB7" stroke-miterlimit="10"/>
<path d="M130.36 376.77L140.4 445.5" stroke="#3D4FB7" stroke-miterlimit="10"/>
<path d="M116.05 376.77V445.5" stroke="#3D4FB7" stroke-miterlimit="10"/>
<path d="M52.81 311.32C47.78 314.9 45.03 319.89 49.32 326.24C52.44 330.86 59.18 331.21 64.05 328.74C68.92 326.27 72.47 321.74 76.21 317.65C79.95 313.57 91.7 311.01 91.7 311.01C91.7 311.01 89 308.2 85.97 306.99C84.49 306.4 82.99 305.84 81.44 305.45C78.19 304.64 74.81 304.38 71.48 304.68C65.04 305.26 58.2 307.48 52.81 311.32Z" fill="#CDDBFC"/>
<path d="M81.46 305.45C69.62 306.57 59.64 312.21 55.84 319.16" stroke="#7289F7" stroke-miterlimit="10"/>
<path d="M239.16 294.05V445.5" stroke="#3D4FB7" stroke-miterlimit="10"/>
<path d="M577.83 294.05V445.5" stroke="#3D4FB7" stroke-miterlimit="10"/>
<path d="M589.22 289.77H227.77V298.34H589.22V289.77Z" fill="#F2F9FF"/>
<defs>
<linearGradient id="paint0_linear_0_1" x1="474.768" y1="139.354" x2="474.768" y2="88.5667" gradientUnits="userSpaceOnUse">
<stop stop-color="#F7F7FF" stop-opacity="0.4"/>
<stop offset="1" stop-color="#D1E4F2" stop-opacity="0.5"/>
</linearGradient>
<linearGradient id="paint1_linear_0_1" x1="-nan" y1="-nan" x2="-nan" y2="-nan" gradientUnits="userSpaceOnUse">
<stop stop-color="white" stop-opacity="0.7"/>
<stop offset="1" stop-color="white"/>
</linearGradient>
<linearGradient id="paint2_linear_0_1" x1="-nan" y1="-nan" x2="-nan" y2="-nan" gradientUnits="userSpaceOnUse">
<stop stop-color="white" stop-opacity="0.7"/>
<stop offset="1" stop-color="white"/>
</linearGradient>
<linearGradient id="paint3_linear_0_1" x1="-nan" y1="-nan" x2="-nan" y2="-nan" gradientUnits="userSpaceOnUse">
<stop stop-color="white" stop-opacity="0.7"/>
<stop offset="1" stop-color="white"/>
</linearGradient>
<linearGradient id="paint4_linear_0_1" x1="557.293" y1="81.4445" x2="549.232" y2="81.4445" gradientUnits="userSpaceOnUse">
<stop stop-color="#F5F5FF" stop-opacity="0.6"/>
<stop offset="1" stop-color="#E4E4F2" stop-opacity="0.5"/>
</linearGradient>
<linearGradient id="paint5_linear_0_1" x1="557.293" y1="90.9272" x2="549.232" y2="90.9272" gradientUnits="userSpaceOnUse">
<stop stop-color="#F5F5FF" stop-opacity="0.6"/>
<stop offset="1" stop-color="#E4E4F2" stop-opacity="0.5"/>
</linearGradient>
<linearGradient id="paint6_linear_0_1" x1="549.232" y1="124.795" x2="573.059" y2="124.795" gradientUnits="userSpaceOnUse">
<stop stop-color="#E7E9F0"/>
<stop offset="1" stop-color="#F5F5FF"/>
</linearGradient>
<linearGradient id="paint7_linear_0_1" x1="557.293" y1="100.41" x2="549.232" y2="100.41" gradientUnits="userSpaceOnUse">
<stop stop-color="#F5F5FF" stop-opacity="0.6"/>
<stop offset="1" stop-color="#E4E4F2" stop-opacity="0.5"/>
</linearGradient>
</defs>
</svg>
