<svg width="500" height="500" viewBox="0 0 500 500" fill="none" xmlns="http://www.w3.org/2000/svg">
<path d="M401.097 313.24C394.828 324.044 387.283 334.562 378.365 344.604L378.327 344.642C378.232 344.737 378.137 344.87 378.041 344.966C360.321 364.858 334.578 375.7 307.941 375.338L205.391 374.005C205.391 374.005 172.579 364.439 139.825 344.642C139.787 344.642 139.787 344.604 139.768 344.604C122.238 333.99 104.727 320.367 92.3415 303.79C81.7855 289.689 74.9831 273.341 75.0403 254.801C75.0403 254.801 69.7242 189.026 181.211 185.31C232.162 179.365 223.492 118.849 332.692 121.059C336.427 121.116 340.085 121.383 343.572 121.821C349.517 122.564 355.176 123.841 360.53 125.537C388.921 134.74 408.795 157.167 418.379 185.844C420.208 191.274 421.676 196.933 422.762 202.802C428.954 236.642 422.476 276.523 401.097 313.24Z" fill="#DFEAF7"/>
<path d="M422.743 202.802H343.591V121.84C349.536 122.583 355.176 123.879 360.53 125.575C388.94 134.778 408.795 157.186 418.398 185.882C420.208 191.293 421.656 196.971 422.743 202.802Z" fill="#F1F3F6"/>
<path d="M418.379 185.863H360.511V125.556C388.94 134.778 408.795 157.186 418.379 185.863Z" fill="#DFEAF7"/>
<path d="M384.463 303.809H337.303C337.36 293.367 337.437 282.944 337.494 272.502C336.522 271.95 335.703 271.321 335.017 270.635C325.737 261.451 335.531 238.91 336.674 236.337C338.732 239.367 340.79 242.378 342.848 245.407H355.653C357.348 242.378 359.044 239.348 360.74 236.299C362.093 239.196 363.408 242.435 364.532 246.036C367.771 256.44 368.247 265.833 367.904 272.845C372.058 273.036 374.802 274.332 384.463 303.809Z" fill="#002D53"/>
<path d="M340.981 258.459C340.981 259.831 340.79 260.936 340.561 260.936C340.333 260.936 340.142 259.831 340.142 258.459C340.142 257.087 340.333 255.982 340.561 255.982C340.79 255.982 340.981 257.087 340.981 258.459Z" fill="white"/>
<path d="M353.557 258.459C353.557 259.831 353.366 260.936 353.137 260.936C352.909 260.936 352.718 259.831 352.718 258.459C352.718 257.087 352.909 255.982 353.137 255.982C353.366 255.982 353.557 257.087 353.557 258.459Z" fill="white"/>
<path d="M209.449 303.809H180.487L191.881 258.021H220.824L209.449 303.809Z" fill="#002D53"/>
<path d="M278.692 277.971C279.016 281.02 276.787 283.497 273.719 283.497H124.353C121.285 283.497 118.522 281.001 118.198 277.971L108.29 184.891C107.966 181.842 110.195 179.365 113.263 179.365H262.63C265.697 179.365 268.46 181.861 268.784 184.891L278.692 277.971Z" fill="white"/>
<path d="M278.692 277.971C279.016 281.02 276.787 283.497 273.719 283.497H124.353C121.285 283.497 118.522 281.001 118.198 277.971L108.29 184.891C107.966 181.842 110.195 179.365 113.263 179.365H262.63C265.697 179.365 268.46 181.861 268.784 184.891L278.692 277.971Z" fill="#002D53"/>
<path d="M130.602 276.561C127.535 276.561 124.772 274.065 124.448 271.035L116.026 191.846C115.702 188.797 117.931 186.32 120.999 186.32H256.399C259.467 186.32 262.229 188.816 262.553 191.846L270.975 271.035C271.299 274.084 269.07 276.561 266.002 276.561H130.602Z" fill="#004072"/>
<path d="M164.31 211.071H132.051L131.25 206.041H163.528L164.31 211.071Z" fill="#FF828A"/>
<path d="M205.048 211.071H172.789L171.988 206.041H204.266L205.048 211.071Z" fill="white"/>
<path d="M166.71 225.667H134.451L133.67 220.618H165.929L166.71 225.667Z" fill="white"/>
<path d="M190.928 238.09H158.65L157.869 233.041H190.128L190.928 238.09Z" fill="white"/>
<path d="M210.097 252.267H177.838L177.038 247.236H209.316L210.097 252.267Z" fill="white"/>
<path d="M229.723 252.267H213.603L212.803 247.236H228.942L229.723 252.267Z" fill="#FF828A"/>
<path d="M226.617 238.09H194.358L193.577 233.041H225.836L226.617 238.09Z" fill="#FF828A"/>
<path d="M378.365 344.604L378.327 344.642C378.232 344.737 378.137 344.87 378.041 344.966C360.321 364.858 334.578 375.7 307.941 375.338L205.391 374.005C205.391 374.005 172.579 364.439 139.825 344.642C139.787 344.642 139.787 344.604 139.768 344.604H378.365Z" fill="#BC7F72"/>
<path d="M401.116 313.24C394.847 324.044 387.264 334.6 378.346 344.623H139.844C122.276 333.991 104.727 320.405 92.3416 303.809H394.371L401.116 313.24Z" fill="#D18C7E"/>
<path d="M300.681 238.071C293.726 259.031 276.063 272.026 261.239 267.11C246.414 262.194 240.05 241.215 247.005 220.256C253.96 199.296 271.623 186.301 286.447 191.217C301.272 196.133 307.636 217.112 300.681 238.071Z" fill="#FFB3AE"/>
<path d="M302.091 243.064H272.119V278.809H302.091V243.064Z" fill="#FFB3AE"/>
<path d="M244.757 229.649C244.757 229.649 220.005 215.568 239.669 191.084C244.757 183.652 244.757 198.781 244.757 198.781C244.757 198.781 261.639 149.831 290.258 181.042C290.258 181.042 317.315 185.615 323.317 203.869C325.261 209.776 324.194 214.806 323.146 220.237C322.765 222.142 315.886 254.992 292.754 259.05C289.515 259.622 281.97 260.327 272.119 255.125C262.992 246.646 253.865 238.148 244.757 229.649Z" fill="#002D53"/>
<path d="M269.184 241.958C269.775 248.494 268.041 254.001 265.335 254.248C262.611 254.496 259.943 249.39 259.352 242.854C258.762 236.318 260.496 230.812 263.201 230.564C265.926 230.316 268.613 235.423 269.184 241.958Z" fill="#FFB3AE"/>
<path d="M365.485 369.603C365.485 369.603 359.597 372.956 343.725 375.815C325.547 379.073 294.298 381.664 243.804 377.796C232.066 376.92 219.281 375.662 205.391 374.004C205.391 374.004 209.373 355.693 218.881 333.971C231.876 304.285 255.217 268.253 292.869 263.966C330.044 259.736 348.431 294.682 357.367 325.511C364.132 348.739 365.485 369.603 365.485 369.603Z" fill="#3D71F2"/>
<path d="M365.485 369.603C365.485 369.603 359.597 372.956 343.725 375.815L338.885 332.276L357.386 325.53C364.132 348.739 365.485 369.603 365.485 369.603Z" fill="#FFB3AE"/>
<path d="M249.768 344.623L247.786 355.808C245.519 368.383 233.934 377.091 221.225 375.758C216.137 375.224 210.859 374.652 205.41 374.005C187.537 372.023 153.144 321.662 153.144 321.662L143.75 323.492C140.701 334.334 138.396 337.077 136.738 336.982C133.213 336.792 131.441 323.625 132.622 315.794C132.851 314.307 133.27 312.44 134.756 311.183C136.033 310.116 137.748 309.792 139.272 309.773C141.235 309.963 142.207 310.077 142.626 310.097C142.111 310.001 140.797 309.754 139.272 309.773C139.044 309.754 138.777 309.734 138.51 309.696C139.558 300.531 145.312 292.91 153.258 290.242C160.613 287.765 167.13 290.452 168.959 291.252C168.959 291.252 171.226 289.823 176.695 290.318C182.163 290.852 185.06 304.133 185.06 304.133L218.957 333.933C225.226 338.468 236.201 344.489 249.768 344.623Z" fill="#FFB3AE"/>
<path d="M142.607 311.716C142.511 311.716 142.416 311.716 142.321 311.697C141.768 311.602 140.587 311.392 139.272 311.392C138.434 311.506 137.672 310.706 137.653 309.811C137.634 308.934 138.339 308.21 139.234 308.191C140.854 308.191 142.264 308.42 142.854 308.534C143.731 308.686 144.322 309.525 144.169 310.401C144.017 311.164 143.35 311.716 142.607 311.716Z" fill="#FF7A72"/>
<path d="M210.516 351.197C210.268 351.197 210.002 351.139 209.754 351.006C208.973 350.587 208.687 349.615 209.106 348.834L217.509 333.209C217.928 332.428 218.9 332.142 219.681 332.562C220.462 332.981 220.748 333.952 220.329 334.734L211.926 350.358C211.621 350.892 211.069 351.197 210.516 351.197Z" fill="#FF7A72"/>
<path d="M338.885 333.457C338.332 333.457 337.837 333.076 337.703 332.504L331.663 303.809C331.53 303.161 331.949 302.532 332.597 302.379C333.264 302.265 333.873 302.665 334.026 303.313L340.066 332.009C340.199 332.657 339.78 333.286 339.132 333.438C339.056 333.438 338.98 333.457 338.885 333.457Z" fill="#002D53"/>
<path d="M249.768 345.823C249.577 345.823 249.387 345.785 249.196 345.671C248.606 345.347 248.396 344.623 248.701 344.051L259.695 323.644C260.019 323.053 260.743 322.844 261.315 323.149C261.906 323.473 262.115 324.197 261.81 324.768L250.816 345.175C250.606 345.595 250.187 345.823 249.768 345.823Z" fill="#002D53"/>
</svg>
